<svg preserveAspectRatio="none" width="100%" height="100%" overflow="visible" style="display: block;" viewBox="0 0 46.4003 41.4326" fill="none" xmlns="http://www.w3.org/2000/svg">
<path id="Vector" d="M10.0579 2.78892C15.3776 6.83912 21.0995 15.0512 23.2003 19.4583C25.3012 15.0515 31.0228 6.83904 36.3427 2.78892C40.1811 -0.133536 46.4003 -2.39477 46.4003 4.80059C46.4003 6.2376 45.5879 16.8722 45.1114 18.5987C43.4552 24.6012 37.4199 26.1322 32.0514 25.2056C41.4354 26.8253 43.8226 32.1904 38.6672 37.5555C28.876 47.7449 24.5943 34.9989 23.4967 31.733C23.2956 31.1342 23.2015 30.8541 23.2001 31.0923C23.1987 30.8541 23.1046 31.1342 22.9035 31.733C21.8064 34.9989 17.5249 47.7452 7.73312 37.5555C2.5776 32.1904 4.96472 26.8249 14.3489 25.2056C8.98024 26.1322 2.94488 24.6012 1.28888 18.5987C0.812384 16.8721 0 6.23744 0 4.80059C0 -2.39477 6.21936 -0.133536 10.0576 2.78892H10.0579Z" fill="var(--fill-0, white)"/>
</svg>
