<svg preserveAspectRatio="none" width="100%" height="100%" overflow="visible" style="display: block;" viewBox="0 0 32.64 48" fill="none" xmlns="http://www.w3.org/2000/svg">
<path id="Vector" fill-rule="evenodd" clip-rule="evenodd" d="M8.64012 0H23.9999C28.7695 0 32.64 3.8705 32.64 8.64006C32.64 11.9825 30.7392 14.8832 27.9603 16.3199C30.7392 17.7567 32.64 20.6576 32.64 23.9999C32.64 28.7695 28.7695 32.64 23.9999 32.64C21.2868 32.64 18.8646 31.3876 17.2802 29.4298V39.3599C17.2802 44.1295 13.4097 48 8.64012 48C3.87054 48 0 44.1295 0 39.3599C0 36.0175 1.90078 33.1167 4.67971 31.6799C1.90078 30.2432 0 27.3423 0 23.9999C0 20.6576 1.90076 17.7567 4.67966 16.3199C1.90077 14.8832 0 11.9825 0 8.64006C0 3.8705 3.87054 0 8.64012 0ZM1.92 8.64006C1.92 4.9309 4.93091 1.92 8.64012 1.92H15.3598V15.3599H8.64012L8.61929 15.3599C4.91962 15.3487 1.92 12.3422 1.92 8.64006ZM15.3602 23.9086C15.3599 23.939 15.3598 23.9694 15.3598 23.9999C15.3598 24.0304 15.3599 24.0609 15.3602 24.0913V30.7198H8.64008C4.93091 30.72 1.92 27.7091 1.92 23.9999C1.92 20.2977 4.91974 17.2911 8.61946 17.2799L8.64012 17.2799H15.3598L15.3602 23.9086ZM17.2802 24.0804V23.9195C17.3233 20.2565 20.3026 17.2947 23.9723 17.2799H23.9999C24.0068 17.2799 24.0137 17.2799 24.0205 17.2799C27.7203 17.2911 30.72 20.2977 30.72 23.9999C30.72 27.7091 27.7091 30.72 23.9999 30.72C20.3175 30.72 17.3234 27.7526 17.2802 24.0804ZM18.5705 17.2799C18.0965 17.6635 17.6638 18.0961 17.2802 18.5701V17.2799H18.5705ZM24.0207 15.3599C24.0138 15.3599 24.0068 15.3599 23.9999 15.3599C23.9894 15.3599 23.9789 15.3599 23.9684 15.3599H17.2802V1.92H23.9999C27.7091 1.92 30.72 4.9309 30.72 8.64006C30.72 12.3422 27.7204 15.3487 24.0207 15.3599ZM8.64012 32.6399C4.93091 32.6399 1.92 35.6508 1.92 39.3599C1.92 43.0691 4.93091 46.08 8.64012 46.08C12.3493 46.08 15.3602 43.0691 15.3602 39.3599V32.6399H8.64012Z" fill="var(--fill-0, white)"/>
</svg>
