<svg preserveAspectRatio="none" width="100%" height="100%" overflow="visible" style="display: block;" viewBox="0 0 26.064 21.6" fill="none" xmlns="http://www.w3.org/2000/svg">
<path id="Vector" fill-rule="evenodd" clip-rule="evenodd" d="M1.79176 9.29865C8.78825 6.25039 13.4537 4.2408 15.788 3.26986C22.4531 0.497636 23.838 0.0160711 24.7407 0.000169546C24.9392 -0.00332783 25.3832 0.0458755 25.6707 0.279201C25.9135 0.476217 25.9803 0.742358 26.0123 0.92915C26.0443 1.11594 26.0841 1.54146 26.0524 1.87395C25.6912 5.66891 24.1284 14.8783 23.3333 19.1287C22.9969 20.9272 22.3345 21.5303 21.6932 21.5893C20.2994 21.7175 19.2411 20.6682 17.8912 19.7833C15.7789 18.3987 14.5856 17.5367 12.5352 16.1856C10.1657 14.6241 11.7017 13.7659 13.0521 12.3633C13.4055 11.9962 19.5463 6.4107 19.6652 5.90401C19.68 5.84064 19.6938 5.60442 19.5535 5.47969C19.4132 5.35496 19.2061 5.39762 19.0566 5.43154C18.8447 5.47962 15.4703 7.71 8.93326 12.1227C7.97543 12.7804 7.10787 13.1009 6.33055 13.0841C5.47363 13.0656 3.82525 12.5995 2.59985 12.2012C1.09685 11.7127 -0.0977048 11.4543 0.00631425 10.6246C0.0604938 10.1924 0.655644 9.75044 1.79176 9.29865Z" fill="var(--fill-0, white)"/>
</svg>
