<svg preserveAspectRatio="none" width="100%" height="100%" overflow="visible" style="display: block;" viewBox="0 0 47.8078 47.8092" fill="none" xmlns="http://www.w3.org/2000/svg">
<path id="Vector" d="M23.9044 0C10.4386 0 0 9.8639 0 23.1872C0 30.1568 2.8561 36.1778 7.50693 40.3382C7.89801 40.6872 8.13323 41.1777 8.14948 41.7007L8.27952 45.9538C8.32064 47.3096 9.72239 48.1922 10.9626 47.6443L15.7071 45.5493C16.1096 45.3724 16.56 45.339 16.9836 45.4566C19.1646 46.0561 21.4843 46.3755 23.9034 46.3755C37.3692 46.3755 47.8078 36.5116 47.8078 23.1882C47.8078 9.86486 37.3702 0 23.9044 0ZM38.7175 16.9998L30.3949 29.8623C29.9723 30.5154 29.1012 30.7018 28.4481 30.2792L20.7385 25.2908C20.4402 25.0977 20.0539 25.1034 19.7613 25.3052L11.0716 31.2985C9.80367 32.1724 8.25371 30.6684 9.09036 29.3756L17.4139 16.5131C17.8365 15.8601 18.7076 15.6736 19.3597 16.0963L27.0712 21.0856C27.3696 21.2787 27.7559 21.273 28.0484 21.0712L36.7363 15.0789C38.0041 14.204 39.5541 15.709 38.7175 17.0018V16.9998Z" fill="var(--fill-0, white)"/>
</svg>
